<?xml version="1.0" standalone="no"?><!DOCTYPE svg PUBLIC "-//W3C//DTD SVG 1.1//EN" "http://www.w3.org/Graphics/SVG/1.1/DTD/svg11.dtd"><svg t="1608027471337" class="icon" viewBox="0 0 1024 1024" version="1.1" xmlns="http://www.w3.org/2000/svg" p-id="910" xmlns:xlink="http://www.w3.org/1999/xlink" width="200" height="200"><defs><style type="text/css"></style></defs><path d="M876.57 268.33H764.44a24 24 0 0 1 0-48h64.13v-96H387.74a24 24 0 0 1 0-48h488.83z" p-id="911"></path><path d="M768.44 947.67H656.3a24 24 0 0 1 0-48h64.14V124.33H303.61v655.34a24 24 0 0 1-48 0V76.33h512.83z" p-id="912"></path><path d="M660.3 947.67H147.47v-192H660.3z m-464.83-48H612.3v-96H195.47zM363.9 428h296.24v48H363.9zM363.9 263h296.24v48H363.9zM363.9 593h296.24v48H363.9z" p-id="913"></path></svg>